<svg width="64" height="64" viewBox="0 0 64 64" fill="none" xmlns="http://www.w3.org/2000/svg">
<path d="M32.8262 0.0107422C50.1174 0.448963 64 14.6031 64 32L63.9893 32.8262C63.551 50.1174 49.3969 64 32 64L31.1738 63.9893C14.1571 63.558 0.442005 49.8429 0.0107422 32.8262L0 32C0 14.3269 14.3269 0 32 0L32.8262 0.0107422ZM32 1.15039C20.2439 1.15039 10.0251 7.72717 4.81836 17.4014H9.80273L12.7402 14.3955C12.5968 14.187 12.5127 13.9343 12.5127 13.6621C12.5131 12.9477 13.0922 12.3684 13.8066 12.3682C14.3574 12.3683 14.8267 12.7133 15.0137 13.1982L20.666 7.5459C20.6018 7.3923 20.5664 7.22371 20.5664 7.04688C20.5666 6.33229 21.1458 5.75312 21.8604 5.75293C22.5751 5.75293 23.1551 6.33217 23.1553 7.04688C23.1553 7.76174 22.5752 8.3418 21.8604 8.3418C21.533 8.34171 21.2347 8.21918 21.0068 8.01855L15.0654 13.96C14.9308 14.5313 14.4189 14.9569 13.8066 14.957C13.5721 14.957 13.3528 14.8934 13.1631 14.7842L10.1299 17.8896L10.0449 17.9766H4.51562C3.92341 19.1349 3.4033 20.3359 2.95898 21.5732H11.002V22.1494H2.75684C2.43299 23.1112 2.15574 24.0942 1.92676 25.0957H12.9678L17.8369 20.2266C17.7607 20.1016 17.7108 19.9586 17.6953 19.8057L17.6904 19.7031L17.6953 19.5996C17.7472 19.0923 18.1763 18.6963 18.6973 18.6963L18.7998 18.7012C19.3072 18.7528 19.7039 19.1821 19.7041 19.7031C19.704 20.2588 19.2529 20.7096 18.6973 20.71C18.5425 20.71 18.3957 20.6747 18.2646 20.6123L13.207 25.6709H1.80176C1.61949 26.545 1.47474 27.4325 1.36816 28.332H14.5674C14.6915 27.9166 15.0774 27.6143 15.5332 27.6143L15.6357 27.6191C16.1433 27.6708 16.54 28.0999 16.54 28.6211C16.5397 29.1766 16.0887 29.6276 15.5332 29.6279C15.0772 29.6279 14.6912 29.3241 14.5674 28.9082H1.30371C1.2095 29.8549 1.15997 30.8142 1.15332 31.7842H12.208L12.293 31.8779L15.3135 35.1865L15.3887 35.2686V43.291L17.5459 45.4844V41.9414L17.5664 41.8906L18.6445 39.1572L18.9121 39.2637L19.1797 39.3691L18.1211 42.0518V46.0684L21.2744 49.2725L21.3574 49.3564V55.4434H20.7822V49.5928L17.6289 46.3896L14.8955 43.6104V43.6094L11.7324 40.4004L11.6494 40.3164V37.958C11.195 37.8928 10.8376 37.5255 10.791 37.0654L10.7861 36.9629L10.791 36.8594C10.8427 36.352 11.272 35.9563 11.793 35.9561L11.8955 35.9609C12.4033 36.0124 12.7998 36.4416 12.7998 36.9629C12.7997 37.3642 12.5644 37.7093 12.2246 37.8711V40.0801L14.8135 42.707V35.4912L11.9541 32.3604H1.15527C1.33169 47.7712 12.8059 60.464 27.6846 62.5469V47.4609H28.2607V62.623C29.3688 62.7569 30.4947 62.8315 31.6357 62.8447L31.4961 47.6797L32.0723 47.6738L32.2109 62.8467C33.1579 62.8403 34.0946 62.792 35.0195 62.7021V58.6777H35.5957V62.6396C46.4351 61.3812 55.5587 54.5054 59.9824 44.998L56.3145 41.1885L56.2334 41.1055V30.5938L56.3105 30.5107L58.8945 27.7168V24.9824L58.9736 24.8994L61.3301 22.418C58.7856 14.6247 53.2238 8.196 46.0225 4.51465V8.22363L52.7559 14.957H54.7021C54.8211 14.6227 55.1397 14.3829 55.5146 14.3828L55.6025 14.3877C56.0376 14.4319 56.377 14.7993 56.377 15.2461L56.373 15.334C56.3289 15.769 55.9613 16.1082 55.5146 16.1084L55.4258 16.1045C55.0891 16.0701 54.813 15.8408 54.7041 15.5322H52.5186L45.5312 8.54492L45.4463 8.46094V4.22754C44.7652 3.89718 44.0702 3.59115 43.3623 3.31055V9.44922L50.6162 16.9873L50.6963 17.0713V24.5674L50.6152 24.6504L44.79 30.6191L44.584 30.4189L44.3789 30.2178L50.1211 24.333V17.3018L42.8672 9.76367L42.7861 9.68066V3.08984C39.4286 1.83662 35.7945 1.15039 32 1.15039ZM54.6104 32.6514C55.1181 32.7028 55.5145 33.1321 55.5146 33.6533C55.5146 34.1091 55.2115 34.4942 54.7959 34.6182V47.29L54.7139 47.374L47.3174 54.9834V58.6787H46.7412V54.751L46.8232 54.667L54.2207 47.0557V34.6182C53.8363 34.5038 53.5475 34.1664 53.5059 33.7559L53.501 33.6533L53.5059 33.5498C53.5577 33.0425 53.9868 32.6466 54.5078 32.6465L54.6104 32.6514ZM24.7373 50.5957L25.8955 52.0264L25.959 52.1055V56.7373H25.3838V52.3086L24.2256 50.8779L24.1611 50.7988V46.5264H24.7373V50.5957ZM33.5098 23.875C34.2246 23.875 34.8046 24.4541 34.8047 25.1689C34.8047 25.7323 34.4439 26.2097 33.9414 26.3877V29.6709L33.8613 29.7539L30.7061 33.0498V37.6338L32.6465 39.5742L33.9541 38.2686L34.0381 38.1846H38.0146C38.136 37.8092 38.4877 37.5373 38.9033 37.5371C39.4193 37.5373 39.8386 37.9557 39.8389 38.4717C39.8389 38.9878 39.4194 39.407 38.9033 39.4072C38.4878 39.407 38.1362 39.135 38.0146 38.7598H34.2754L32.9346 40.1006V45.1592H32.3594V40.1006L30.2148 37.9561L30.1299 37.8721V32.8193L30.21 32.7354L33.3662 29.4395V26.4551C32.7191 26.3834 32.2158 25.8352 32.2158 25.1689C32.2159 24.4542 32.7951 23.8752 33.5098 23.875ZM27.3262 32.5029C28.0408 32.5031 28.6209 33.0823 28.6211 33.7969C28.6211 34.3868 28.2254 34.8839 27.6855 35.04V37.9297L29.9824 40.4355L30.0586 40.5176V44.4404H29.4824V40.7402L27.1855 38.2354L27.1094 38.1523V35.0713C26.4978 34.968 26.0322 34.4378 26.0322 33.7969C26.0324 33.0822 26.6114 32.503 27.3262 32.5029ZM59.4697 25.2109V27.9424L59.3936 28.0254L56.8096 30.8174V40.874L60.2373 44.4336C61.9147 40.6297 62.8496 36.4244 62.8496 32C62.8496 31.4697 62.836 30.9426 62.8096 30.4189H60.5225L59.2539 31.6875V38.4414C59.6697 38.5652 59.9735 38.9504 59.9736 39.4062C59.9735 39.962 59.5225 40.4128 58.9668 40.4131C58.4455 40.4131 58.0163 40.0166 57.9648 39.5088L57.96 39.4062L57.9648 39.3027C58.0068 38.8931 58.2942 38.5559 58.6777 38.4414V31.4502L60.2852 29.8428H62.7734C62.6112 27.4946 62.1859 25.2193 61.5273 23.0449L59.4697 25.2109ZM58.9668 38.9746C58.7286 38.9746 58.5354 39.1681 58.5352 39.4062C58.5352 39.6148 58.6832 39.789 58.8799 39.8291L58.9668 39.8379C59.1751 39.8377 59.3494 39.6896 59.3896 39.4932L59.3984 39.4062C59.3982 39.1683 59.2047 38.9749 58.9668 38.9746ZM38.9033 37.9688C38.6257 37.969 38.4006 38.194 38.4004 38.4717C38.4004 38.715 38.5732 38.918 38.8027 38.9648L38.9033 38.9756C39.1465 38.9754 39.3497 38.8026 39.3965 38.5732L39.4072 38.4717C39.407 38.194 39.181 37.969 38.9033 37.9688ZM11.793 36.5312C11.5549 36.5315 11.3613 36.7247 11.3613 36.9629C11.3614 37.1713 11.5096 37.3455 11.7061 37.3857L11.793 37.3945C12.0013 37.3944 12.1755 37.2463 12.2158 37.0498L12.2246 36.9629C12.2246 36.7247 12.0312 36.5313 11.793 36.5312ZM27.3262 33.2217C27.0086 33.2217 26.7511 33.4793 26.751 33.7969C26.751 34.1146 27.0085 34.372 27.3262 34.3721C27.6437 34.3719 27.9014 34.1145 27.9014 33.7969C27.9012 33.4794 27.6436 33.2219 27.3262 33.2217ZM54.5078 33.2217C54.2697 33.2218 54.0763 33.4152 54.0762 33.6533C54.0763 33.8618 54.2243 34.036 54.4209 34.0762L54.5078 34.085C54.7162 34.0849 54.8904 33.9368 54.9307 33.7402L54.9395 33.6533C54.9393 33.4152 54.746 33.2218 54.5078 33.2217ZM30.1611 26.0361C30.6689 26.0876 31.0654 26.5168 31.0654 27.0381C31.0652 27.5939 30.6144 28.0448 30.0586 28.0449C29.8848 28.0449 29.7218 27.9995 29.5791 27.9219L26.1631 31.3389L26.0791 31.4238H21.9326V30.8486H25.8398L29.1719 27.5156C29.1105 27.402 29.0703 27.2752 29.0566 27.1406L29.0518 27.0381L29.0566 26.9346C29.1084 26.4271 29.5375 26.0312 30.0586 26.0312L30.1611 26.0361ZM55.2266 18.2656C55.9414 18.2656 56.5214 18.8447 56.5215 19.5596C56.5215 20.1754 56.0909 20.6892 55.5146 20.8203V25.6416L55.4365 25.7246L54.3643 26.8633V30.2021H50.4092V29.627H53.7891V26.6367L53.8672 26.5527L54.9395 25.4131V20.8203C54.3633 20.6893 53.9326 20.1755 53.9326 19.5596C53.9327 18.8449 54.5119 18.2658 55.2266 18.2656ZM48.1074 21.7168C48.6235 21.7168 49.0426 22.1354 49.043 22.6514L49.0381 22.7471C48.9903 23.2185 48.5915 23.5869 48.1074 23.5869L48.0117 23.582C47.8931 23.5699 47.781 23.5358 47.6797 23.4834L45.4316 25.6621L45.3525 25.7383L45.2432 25.7432L41.9639 25.8818L39.7666 27.8145V30.0576H39.1904V24.2598C38.8153 24.1381 38.5439 23.7858 38.5439 23.3701C38.5443 22.8542 38.9626 22.4357 39.4785 22.4355C39.9945 22.4357 40.4137 22.8542 40.4141 23.3701L40.4092 23.4658C40.3713 23.8391 40.1127 24.1464 39.7666 24.2588V27.0488L41.6621 25.3838L41.7383 25.3164L41.8389 25.3125L45.1094 25.1719L47.2734 23.0752C47.2089 22.9481 47.1729 22.8036 47.1729 22.6514C47.1732 22.1355 47.5916 21.717 48.1074 21.7168ZM15.5332 28.1895C15.2949 28.1895 15.1016 28.3828 15.1016 28.6211C15.1018 28.8294 15.2497 29.0039 15.4463 29.0439L15.5332 29.0527C15.7413 29.0524 15.9157 28.9042 15.9561 28.708L15.9648 28.6211C15.9648 28.383 15.7712 28.1898 15.5332 28.1895ZM30.0586 26.6064C29.8203 26.6064 29.627 26.7998 29.627 27.0381C29.6271 27.2465 29.775 27.4208 29.9717 27.4609L30.0586 27.4697C30.2669 27.4696 30.4411 27.3214 30.4814 27.125L30.4902 27.0381C30.4902 26.7999 30.2968 26.6065 30.0586 26.6064ZM33.5098 24.5938C33.1922 24.5939 32.9346 24.8514 32.9346 25.1689C32.9346 25.4866 33.1922 25.744 33.5098 25.7441C33.8275 25.7441 34.085 25.4867 34.085 25.1689C34.0849 24.8513 33.8275 24.5938 33.5098 24.5938ZM39.4785 22.8672C39.2008 22.8673 38.9759 23.0925 38.9756 23.3701C38.9756 23.648 39.2006 23.8739 39.4785 23.874C39.7564 23.8739 39.9824 23.6481 39.9824 23.3701C39.9821 23.0925 39.7562 22.8673 39.4785 22.8672ZM48.1074 22.1484C47.8298 22.1487 47.6048 22.3738 47.6045 22.6514C47.6045 22.9292 47.8296 23.155 48.1074 23.1553C48.3854 23.1553 48.6113 22.9294 48.6113 22.6514C48.611 22.3737 48.3852 22.1484 48.1074 22.1484ZM18.6973 19.2715C18.4591 19.2715 18.2658 19.465 18.2656 19.7031C18.2657 19.9116 18.4137 20.0859 18.6104 20.126L18.6973 20.1348C18.9054 20.1344 19.0799 19.9864 19.1201 19.79L19.1289 19.7031C19.1287 19.4652 18.9351 19.2718 18.6973 19.2715ZM55.2266 18.9844C54.909 18.9846 54.6514 19.242 54.6514 19.5596C54.6514 19.8772 54.909 20.1346 55.2266 20.1348C55.5443 20.1348 55.8018 19.8773 55.8018 19.5596C55.8017 19.2419 55.5443 18.9844 55.2266 18.9844ZM55.5146 14.8145C55.2765 14.8146 55.083 15.0079 55.083 15.2461C55.0832 15.4841 55.2766 15.6766 55.5146 15.6768C55.7527 15.6766 55.9451 15.4841 55.9453 15.2461C55.9453 15.0079 55.7528 14.8146 55.5146 14.8145ZM13.8066 12.9434C13.4099 12.9435 13.0883 13.2654 13.0879 13.6621C13.0879 14.0096 13.3344 14.3002 13.6621 14.3672L13.8066 14.3818C14.154 14.3817 14.4446 14.1351 14.5117 13.8076L14.5264 13.6621C14.526 13.2654 14.2034 12.9435 13.8066 12.9434ZM21.8604 6.32812C21.4635 6.32831 21.1418 6.65 21.1416 7.04688C21.1416 7.39441 21.3881 7.68493 21.7158 7.75195L21.8604 7.7666C22.2078 7.7666 22.4983 7.51998 22.5654 7.19238L22.5801 7.04688C22.5799 6.64989 22.2574 6.32812 21.8604 6.32812Z" fill="url(#paint0_linear_2566_356)"/>
<path d="M33.1743 7.64951C32.6049 8.22367 32.0845 8.76696 32.0171 8.85957C31.8824 9.05095 31.9008 9.23617 32.0722 9.42755C32.1335 9.49546 32.4702 9.88441 32.8192 10.2919C33.1743 10.6993 33.6029 11.1809 33.7865 11.3661C34.2029 11.7859 34.2886 11.7674 34.9376 11.1253C35.207 10.8599 35.709 10.366 36.058 10.0264C36.8601 9.24234 36.8539 9.24851 36.1866 8.46445C35.4335 7.58778 34.9621 7.04449 34.7478 6.81606C34.3988 6.45798 34.3376 6.49503 33.1743 7.64951Z" fill="url(#paint1_linear_2566_356)"/>
<path d="M48.1796 16.1805L44.0808 21.4299C39.9819 15.6052 31.4965 20.0636 29.7706 21.0703C20.9113 26.7656 21.4291 34.6613 22.7954 37.8973C26.7504 46.7422 37.7527 45.7517 43.6493 38.2568C41.3482 42.6433 37.5369 48.54 28.9796 48.3961C19.3437 47.3894 17.9055 39.695 17.474 38.5445C17.0426 37.3939 14.0943 25.2411 27.6133 17.1153C38.4286 10.6146 45.8306 13.7834 48.1796 16.1805Z" fill="url(#paint2_linear_2566_356)"/>
<path d="M36.3873 29.5553L32.1446 34.7328H46.3102V44.153C39.1192 53.9328 28.9799 57.6002 19.5596 53.3575C0.647292 43.1463 7.33493 19.1171 22.2923 12.4407C1.51023 21.7171 2.66078 47.8923 18.625 56.5935C34.5893 65.2946 47.8205 52.9979 51.9918 46.0227L51.9192 29.5553H36.3873Z" fill="url(#paint3_linear_2566_356)"/>
<defs>
<linearGradient id="paint0_linear_2566_356" x1="64" y1="31.8997" x2="1.4999e-06" y2="33.7054" gradientUnits="userSpaceOnUse">
<stop stop-color="#F7C649"/>
<stop offset="0.26275" stop-color="#FFB257"/>
<stop offset="0.756632" stop-color="#29AD82"/>
<stop offset="1" stop-color="#265B99"/>
</linearGradient>
<linearGradient id="paint1_linear_2566_356" x1="36.6743" y1="9.14094" x2="31.9278" y2="9.01468" gradientUnits="userSpaceOnUse">
<stop stop-color="#F7C649"/>
<stop offset="0.26275" stop-color="#FFB257"/>
<stop offset="0.670344" stop-color="#29AD82"/>
<stop offset="1" stop-color="#265B99"/>
</linearGradient>
<linearGradient id="paint2_linear_2566_356" x1="48.1796" y1="30.7748" x2="2.21855" y2="28.9895" gradientUnits="userSpaceOnUse">
<stop stop-color="#F7C649"/>
<stop offset="0.26275" stop-color="#FFB257"/>
<stop offset="0.670344" stop-color="#29AD82"/>
<stop offset="1" stop-color="#265B99"/>
</linearGradient>
<linearGradient id="paint3_linear_2566_356" x1="51.9919" y1="35.9438" x2="6.65986" y2="37.1732" gradientUnits="userSpaceOnUse">
<stop stop-color="#F7C649"/>
<stop offset="0.26275" stop-color="#FFB257"/>
<stop offset="0.670344" stop-color="#29AD82"/>
<stop offset="1" stop-color="#265B99"/>
</linearGradient>
</defs>
</svg>
